<?xml version="1.0" encoding="UTF-8"?>
<!DOCTYPE svg PUBLIC "-//W3C//DTD SVG 1.1//EN" "http://www.w3.org/Graphics/SVG/1.1/DTD/svg11.dtd">
<svg xmlns="http://www.w3.org/2000/svg" version="1.1" width="582px" height="603px" style="shape-rendering:geometricPrecision; text-rendering:geometricPrecision; image-rendering:optimizeQuality; fill-rule:evenodd; clip-rule:evenodd" xmlns:xlink="http://www.w3.org/1999/xlink">
<g><path style="opacity:0.967" fill="#fefffe" d="M 264.5,17.5 C 368.255,12.4795 452.422,50.1461 517,130.5C 569.032,202.989 585.365,282.989 566,370.5C 542.653,457.418 490.82,520.918 410.5,561C 342.927,591.132 273.594,595.799 202.5,575C 120.527,547.357 61.6935,494.19 26,415.5C 14.9656,389.899 8.13225,363.232 5.5,335.5C 25.0761,335.174 44.5761,335.507 64,336.5C 74.1349,400.971 105.302,452.471 157.5,491C 218.553,532.388 284.553,543.055 355.5,523C 425.147,499.686 473.814,454.019 501.5,386C 480.167,385.333 458.833,385.333 437.5,386C 405.454,445.125 355.621,475.625 288,477.5C 226.805,476.245 179.472,450.245 146,399.5C 133.623,379.869 126.123,358.535 123.5,335.5C 253.833,335.5 384.167,335.5 514.5,335.5C 522.258,252.869 494.925,184.369 432.5,130C 365.066,78.5389 291.066,66.2055 210.5,93C 129.878,125.796 81.2116,184.963 64.5,270.5C 44.5111,271.5 24.5111,271.833 4.5,271.5C 17.2917,176.634 64.2917,104.467 145.5,55C 182.585,33.9846 222.252,21.4846 264.5,17.5 Z"/></g>
<g><path style="opacity:0.949" fill="#fefffe" d="M 269.5,144.5 C 326.317,139.931 374.15,158.264 413,199.5C 431.253,220.338 443.419,244.338 449.5,271.5C 341.833,271.5 234.167,271.5 126.5,271.5C 137.044,227.465 161.377,193.298 199.5,169C 221.231,155.925 244.565,147.758 269.5,144.5 Z"/></g>
</svg>
